<?xml version="1.0" encoding="utf-8"?>
<!-- Generator: Adobe Illustrator 15.1.0, SVG Export Plug-In . SVG Version: 6.00 Build 0)  -->
<!DOCTYPE svg PUBLIC "-//W3C//DTD SVG 1.1//EN" "http://www.w3.org/Graphics/SVG/1.1/DTD/svg11.dtd">
<svg version="1.1" id="Layer_1" xmlns="http://www.w3.org/2000/svg" xmlns:xlink="http://www.w3.org/1999/xlink" x="0px" y="0px"
	 width="294px" height="101.8px" viewBox="157 333.5 294 101.8" enable-background="new 157 333.5 294 101.8" xml:space="preserve">
<g>
	<g>
		<path fill="#32BCD4" d="M182.2,382.4c3.699-3.8,6.8-5.3,10.3-5.3c7.899,0,10.8,7,10.8,21.8c0,14.699-3.5,21.3-11.6,21.3
			c-5.801,0-9.5-4.3-9.5-12V382.4z M157,432.9h15.3l4.6-10.5c5.101,8.3,13.5,12.3,23.2,12.3c16.2,0,29.601-13.7,29.601-37.3
			c0-17-7.5-35.5-27.301-35.5c-8.8,0-15.5,3.1-19.8,9.7h-0.3v-38.1H157V432.9z"/>
		<path fill="#32BCD4" d="M238.5,333.5h25.2v99.4h-25.2V333.5L238.5,333.5z"/>
		<path fill="#32BCD4" d="M275.7,363H300.9v69.9H275.7V363z M275.7,333.5H300.9v19.7H275.7V333.5z"/>
		<g>
			<path fill="#32BCD4" d="M355.199,384.9c-2.399-4.2-5.699-8.9-12-8.9c-5.199,0-7.6,2.2-7.6,4.5c0,11.3,38.8,7.7,38.8,30.9
				c0,15.1-12.899,23.899-31.7,23.899c-17.7,0-29.2-8.399-33.3-19.8L329,410.1c3,5.301,6.3,10.2,13.699,10.2c4.7,0,8-2.1,8-5.2
				c0-11.8-38.8-7.1-38.8-31.399c0-7.4,8.2-21.8,30.8-21.8c12.801,0,25.7,5.3,30.301,19L355.199,384.9z"/>
			<path fill="#32BCD4" d="M422.3,384.9c-2.4-4.2-5.7-8.9-12-8.9c-5.2,0-7.601,2.2-7.601,4.5c0,11.3,38.8,7.7,38.8,30.9
				c0,15.1-12.899,23.899-31.699,23.899c-17.7,0-29.2-8.399-33.301-19.8l19.601-5.4c3,5.301,6.3,10.2,13.7,10.2c4.7,0,8-2.1,8-5.2
				c0-11.8-38.8-7.1-38.8-31.399c0-7.4,8.199-21.8,30.8-21.8c12.8,0,25.7,5.3,30.3,19L422.3,384.9z"/>
		</g>
	</g>
</g>
<path fill="#32BCD4" d="M446.4,367.9c2.5,0,4.601,2,4.601,4.6c0,2.5-2.101,4.5-4.601,4.5c-2.6,0-4.6-2.1-4.6-4.5
	C441.8,369.9,443.8,367.9,446.4,367.9z M446.4,376.2c2.101,0,3.8-1.7,3.8-3.7c0-2.1-1.7-3.8-3.8-3.8s-3.8,1.7-3.8,3.8
	C442.6,374.5,444.3,376.2,446.4,376.2z M445.5,374.9H444.4V370h2.3c0.3,0,1.9,0,1.9,1.5c0,0.9-0.7,1.2-0.9,1.3l0.9,2.1h-1.101
	l-0.8-1.9h-1.2L445.5,374.9L445.5,374.9z M445.5,372.1h1.1c0.4,0,1-0.1,1-0.7c0-0.3-0.2-0.6-0.9-0.6H445.5V372.1z"/>
</svg>